<?xml version="1.0" encoding="UTF-8" standalone="no"?><!DOCTYPE svg PUBLIC "-//W3C//DTD SVG 1.1//EN" "http://www.w3.org/Graphics/SVG/1.1/DTD/svg11.dtd"><svg width="100%" height="100%" viewBox="0 0 300 150" version="1.1" xmlns="http://www.w3.org/2000/svg" xmlns:xlink="http://www.w3.org/1999/xlink" xml:space="preserve" xmlns:serif="http://www.serif.com/" style="fill-rule:evenodd;clip-rule:evenodd;stroke-linejoin:round;stroke-miterlimit:2;"><rect x="-3.248" y="-4.352" width="310.626" height="161.575" style="fill-opacity:0.05;"/><g opacity="0.25"><g><path d="M180.817,20.214l-61.634,0c-5.636,0 -10.273,4.637 -10.273,10.272l0,89.028c0,5.635 4.637,10.272 10.273,10.272l61.634,0c5.636,0 10.273,-4.637 10.273,-10.272l0,-89.028c0,-5.635 -4.637,-10.272 -10.273,-10.272Zm-30.817,27.393c7.514,0 13.697,6.183 13.697,13.696c0,7.514 -6.183,13.697 -13.697,13.697c-7.514,0 -13.697,-6.183 -13.697,-13.697c0.007,-7.511 6.186,-13.689 13.697,-13.696Zm23.969,50.677c0,2.269 -2.14,4.109 -4.794,4.109l-38.35,0c-2.654,0 -4.794,-1.84 -4.794,-4.109l0,-4.109c0,-6.805 6.442,-12.327 14.381,-12.327l1.07,0c5.447,2.282 11.589,2.282 17.036,0l1.07,0c7.939,0 14.381,5.522 14.381,12.327l0,4.109Z" style="fill-opacity:0.4;fill-rule:nonzero;"/><path d="M150,75c7.514,0 13.697,-6.183 13.697,-13.697c0,-7.513 -6.183,-13.696 -13.697,-13.696c-7.514,0 -13.697,6.183 -13.697,13.696c0.007,7.511 6.186,13.69 13.697,13.697Zm9.588,6.848l-1.07,0c-5.447,2.282 -11.589,2.282 -17.036,0l-1.07,0c-7.939,0 -14.381,5.522 -14.381,12.327l0,4.109c0,2.269 2.14,4.109 4.794,4.109l38.35,0c2.654,0 4.794,-1.84 4.794,-4.109l0,-4.109c0,-6.805 -6.442,-12.327 -14.381,-12.327Z" style="fill-rule:nonzero;"/></g></g></svg>