<?xml version="1.0" encoding="UTF-8" standalone="no"?><!DOCTYPE svg PUBLIC "-//W3C//DTD SVG 1.1//EN" "http://www.w3.org/Graphics/SVG/1.1/DTD/svg11.dtd"><svg width="100%" height="100%" viewBox="0 0 300 150" version="1.1" xmlns="http://www.w3.org/2000/svg" xmlns:xlink="http://www.w3.org/1999/xlink" xml:space="preserve" xmlns:serif="http://www.serif.com/" style="fill-rule:evenodd;clip-rule:evenodd;stroke-linejoin:round;stroke-miterlimit:2;"><rect x="-3.248" y="-4.352" width="310.626" height="161.575" style="fill-opacity:0.05;"/><g id="Image" opacity="0.25"><g><path d="M187.708,100.138l-75.416,0l0,-9.426l14.044,-14.047c0.443,-0.443 1.044,-0.693 1.67,-0.693c0.626,0 1.227,0.25 1.669,0.693l10.898,10.904l26.613,-26.615c0.442,-0.444 1.044,-0.693 1.67,-0.693c0.626,0 1.227,0.249 1.669,0.693l17.183,17.188l0,21.996Z" style="fill-opacity:0.4;fill-rule:nonzero;"/><path d="M190.85,37.292l-81.7,0c-5.171,0 -9.427,4.256 -9.427,9.427l0,56.562c0,5.171 4.256,9.427 9.427,9.427l81.7,0c5.171,0 9.427,-4.256 9.427,-9.427l0,-56.562c0,-5.171 -4.256,-9.427 -9.427,-9.427Zm-69.131,10.998c6.034,0 10.998,4.965 10.998,10.998c0,6.034 -4.964,10.999 -10.998,10.999c-6.033,0 -10.998,-4.965 -10.998,-10.999c0,-6.033 4.965,-10.998 10.998,-10.998Zm65.989,51.848l-75.416,0l0,-9.426l14.044,-14.047c0.443,-0.443 1.044,-0.693 1.67,-0.693c0.626,0 1.227,0.25 1.669,0.693l10.898,10.904l26.613,-26.615c0.442,-0.444 1.044,-0.693 1.67,-0.693c0.626,0 1.227,0.249 1.669,0.693l17.183,17.188l0,21.996Z" style="fill-rule:nonzero;"/></g></g></svg>