<?xml version="1.0" encoding="UTF-8" standalone="no"?><!DOCTYPE svg PUBLIC "-//W3C//DTD SVG 1.1//EN" "http://www.w3.org/Graphics/SVG/1.1/DTD/svg11.dtd"><svg width="100%" height="100%" viewBox="0 0 511 251" version="1.1" xmlns="http://www.w3.org/2000/svg" xmlns:xlink="http://www.w3.org/1999/xlink" xml:space="preserve" xmlns:serif="http://www.serif.com/" style="fill-rule:evenodd;clip-rule:evenodd;stroke-linejoin:round;stroke-miterlimit:2;"><rect id="Logo" x="0" y="0" width="510.164" height="250.17" style="fill:none;"/><clipPath id="_clip1"><rect x="0" y="0" width="510.164" height="250.17"/></clipPath><g clip-path="url(#_clip1)"><g id="studies"><path d="M290.986,238.814c0,3.301 -1.334,5.96 -4.001,7.977c-2.667,2.017 -6.087,3.026 -10.259,3.026c-4.542,0 -8.292,-0.734 -11.249,-2.201l0.951,-4.244c3.327,1.467 6.733,2.201 10.219,2.201c2.641,0 4.819,-0.55 6.535,-1.651c1.717,-1.1 2.575,-2.646 2.575,-4.637c0,-1.205 -0.383,-2.279 -1.149,-3.222c-0.765,-0.943 -1.624,-1.677 -2.574,-2.201c-0.951,-0.524 -2.218,-1.127 -3.803,-1.808c-0.369,-0.157 -0.634,-0.262 -0.792,-0.314c-1.848,-0.786 -3.195,-1.402 -4.04,-1.847c-0.845,-0.445 -1.967,-1.153 -3.367,-2.122c-1.399,-0.97 -2.416,-2.044 -3.05,-3.223c-0.634,-1.179 -0.951,-2.502 -0.951,-3.969c0,-3.196 1.189,-5.632 3.565,-7.309c2.377,-1.677 5.414,-2.515 9.111,-2.515c3.961,0 7.552,0.838 10.773,2.515l-1.029,4.244c-3.275,-1.677 -6.523,-2.515 -9.744,-2.515c-4.965,0 -7.447,1.703 -7.447,5.109c0,0.733 0.119,1.401 0.356,2.004c0.238,0.602 0.713,1.166 1.426,1.69c0.713,0.524 1.241,0.89 1.585,1.1c0.343,0.21 1.122,0.59 2.337,1.14c1.214,0.55 1.927,0.877 2.139,0.982c0.211,0.105 0.858,0.406 1.941,0.904c1.082,0.498 1.861,0.865 2.337,1.1c0.475,0.236 1.188,0.642 2.138,1.219c0.951,0.576 1.677,1.113 2.179,1.611c0.502,0.498 1.043,1.1 1.624,1.807c0.581,0.708 1.003,1.494 1.267,2.358c0.265,0.865 0.397,1.795 0.397,2.791Z" style="fill:#808285;fill-rule:nonzero;"/><path d="M298.907,215.864l0,-4.323l6.893,0l0,-9.982l5.307,0l0,9.982l12.834,0l0,4.323l-12.834,0l0,20.827c0,3.092 0.436,5.332 1.307,6.72c0.872,1.389 2.549,2.083 5.031,2.083c2.059,0 4.146,-0.367 6.258,-1.1l0.475,4.008c-2.112,0.943 -4.674,1.415 -7.684,1.415c-7.13,0 -10.694,-4.401 -10.694,-13.204l0,-20.749l-6.893,0Z" style="fill:#808285;fill-rule:nonzero;"/><path d="M360.144,211.541l5.308,0l0,37.49l-4.991,0l0,-5.423c-3.169,4.139 -7.341,6.209 -12.517,6.209c-4.33,0 -7.565,-1.729 -9.704,-5.187c-2.139,-3.459 -3.209,-7.86 -3.209,-13.205l0,-19.884l5.308,0l0,19.492c0,4.715 0.687,8.291 2.06,10.728c1.373,2.436 3.75,3.655 7.13,3.655c4.013,0 7.552,-1.939 10.615,-5.817l0,-28.058Z" style="fill:#808285;fill-rule:nonzero;"/><path d="M410.131,193.542l0,55.489l-4.99,0l0,-5.423c-3.169,4.139 -7.394,6.209 -12.676,6.209c-4.541,0 -8.106,-1.795 -10.694,-5.384c-2.588,-3.589 -3.882,-8.213 -3.882,-13.872c0,-6.078 1.756,-10.899 5.268,-14.462c3.512,-3.563 8.12,-5.344 13.824,-5.344c2.746,0 5.36,0.367 7.843,1.1l0,-18.313l5.307,0Zm-16.24,51.952c3.961,0 7.605,-1.991 10.933,-5.973l0,-23.264c-1.849,-0.786 -4.305,-1.179 -7.368,-1.179c-4.278,0 -7.724,1.323 -10.338,3.969c-2.614,2.646 -3.921,6.484 -3.921,11.514c0,4.716 0.884,8.383 2.654,11.003c1.769,2.62 4.449,3.93 8.04,3.93Z" style="fill:#808285;fill-rule:nonzero;"/><path d="M430.649,249.031l-5.308,0l0,-37.49l5.308,0l0,37.49Zm-6.337,-48.887c0,-1.048 0.343,-1.925 1.029,-2.633c0.687,-0.707 1.558,-1.061 2.615,-1.061c1.109,0 2.007,0.354 2.693,1.061c0.687,0.708 1.03,1.585 1.03,2.633c0,0.996 -0.343,1.847 -1.03,2.555c-0.686,0.707 -1.584,1.061 -2.693,1.061c-1.057,0 -1.928,-0.354 -2.615,-1.061c-0.686,-0.708 -1.029,-1.559 -1.029,-2.555Z" style="fill:#808285;fill-rule:nonzero;"/><path d="M459.723,210.755c4.7,0 8.225,1.441 10.575,4.323c2.351,2.881 3.526,6.628 3.526,11.239c0,1.624 -0.159,3.353 -0.476,5.187l-24.875,0c0.106,9.432 4.463,14.147 13.072,14.147c3.908,0 7.578,-0.812 11.011,-2.436l0.872,3.93c-3.697,1.781 -7.843,2.672 -12.438,2.672c-5.809,0 -10.246,-1.821 -13.309,-5.462c-3.063,-3.642 -4.594,-8.319 -4.594,-14.03c0,-5.764 1.505,-10.466 4.515,-14.108c3.01,-3.641 7.051,-5.462 12.121,-5.462Zm-0.238,4.008c-3.274,0 -5.902,1.258 -7.882,3.773c-1.981,2.515 -3.024,5.449 -3.13,8.803l20.281,0c0.316,-3.773 -0.317,-6.812 -1.902,-9.118c-1.584,-2.305 -4.04,-3.458 -7.367,-3.458Z" style="fill:#808285;fill-rule:nonzero;"/><path d="M509.868,238.814c0,3.301 -1.333,5.96 -4,7.977c-2.667,2.017 -6.087,3.026 -10.259,3.026c-4.542,0 -8.292,-0.734 -11.249,-2.201l0.95,-4.244c3.328,1.467 6.734,2.201 10.22,2.201c2.64,0 4.819,-0.55 6.535,-1.651c1.717,-1.1 2.575,-2.646 2.575,-4.637c0,-1.205 -0.383,-2.279 -1.149,-3.222c-0.766,-0.943 -1.624,-1.677 -2.574,-2.201c-0.951,-0.524 -2.219,-1.127 -3.803,-1.808c-0.37,-0.157 -0.634,-0.262 -0.792,-0.314c-1.849,-0.786 -3.195,-1.402 -4.04,-1.847c-0.845,-0.445 -1.968,-1.153 -3.367,-2.122c-1.4,-0.97 -2.416,-2.044 -3.05,-3.223c-0.634,-1.179 -0.951,-2.502 -0.951,-3.969c0,-3.196 1.189,-5.632 3.565,-7.309c2.377,-1.677 5.414,-2.515 9.11,-2.515c3.961,0 7.553,0.838 10.774,2.515l-1.03,4.244c-3.274,-1.677 -6.522,-2.515 -9.744,-2.515c-4.964,0 -7.446,1.703 -7.446,5.109c0,0.733 0.119,1.401 0.356,2.004c0.238,0.602 0.713,1.166 1.426,1.69c0.713,0.524 1.241,0.89 1.585,1.1c0.343,0.21 1.122,0.59 2.337,1.14c1.214,0.55 1.927,0.877 2.139,0.982c0.211,0.105 0.858,0.406 1.94,0.904c1.083,0.498 1.862,0.865 2.337,1.1c0.476,0.236 1.189,0.642 2.139,1.219c0.951,0.576 1.677,1.113 2.179,1.611c0.502,0.498 1.043,1.1 1.624,1.807c0.581,0.708 1.003,1.494 1.267,2.358c0.264,0.865 0.396,1.795 0.396,2.791Z" style="fill:#808285;fill-rule:nonzero;"/></g><g id="human"><path d="M272.655,185.314l-5.398,0l0,-55.489l5.398,0l0,23.107c3.062,-3.93 7.198,-5.894 12.409,-5.894c4.512,0 7.882,1.729 10.111,5.187c2.229,3.458 3.344,7.859 3.344,13.204l0,19.885l-5.398,0l0,-19.492c0,-9.589 -3.223,-14.383 -9.669,-14.383c-4.082,0 -7.681,1.939 -10.797,5.816l0,28.059Z" style="fill:#808285;fill-rule:nonzero;"/><path d="M339.853,147.823l5.398,0l0,37.491l-5.076,0l0,-5.423c-3.223,4.139 -7.466,6.209 -12.731,6.209c-4.404,0 -7.694,-1.729 -9.87,-5.188c-2.175,-3.458 -3.263,-7.859 -3.263,-13.204l0,-19.885l5.399,0l0,19.492c0,4.716 0.698,8.292 2.094,10.729c1.397,2.436 3.814,3.654 7.252,3.654c4.082,0 7.681,-1.938 10.797,-5.816l0,-28.059Z" style="fill:#808285;fill-rule:nonzero;"/><path d="M403.424,151.439c-3.76,0 -7.547,2.201 -11.361,6.602c0.591,1.991 0.887,4.454 0.887,7.388l0,19.885l-5.399,0l0,-19.492c0,-9.589 -3.169,-14.383 -9.507,-14.383c-3.868,0 -7.359,1.939 -10.475,5.816l0,28.059l-5.398,0l0,-37.491l5.076,0l0,5.424c1.343,-1.834 3.116,-3.328 5.318,-4.48c2.202,-1.153 4.593,-1.729 7.171,-1.729c4.995,0 8.675,2.436 11.038,7.309c3.707,-4.873 8.38,-7.309 14.02,-7.309c4.566,0 7.963,1.702 10.192,5.108c2.229,3.406 3.344,7.834 3.344,13.283l0,19.885l-5.398,0l0,-19.492c0,-9.589 -3.17,-14.383 -9.508,-14.383Z" style="fill:#808285;fill-rule:nonzero;"/><path d="M456.924,185.314l0,-5.109c-1.397,1.572 -3.277,2.947 -5.64,4.126c-2.363,1.179 -4.915,1.769 -7.654,1.769c-3.384,0 -6.016,-0.93 -7.896,-2.791c-1.881,-1.86 -2.821,-4.309 -2.821,-7.348c0,-3.406 1.196,-5.987 3.586,-7.742c2.39,-1.755 5.653,-2.764 9.789,-3.026c2.31,-0.157 5.829,-0.288 10.555,-0.393l0,-2.436c0,-3.773 -0.792,-6.537 -2.376,-8.292c-1.585,-1.755 -4.042,-2.633 -7.373,-2.633c-3.814,0 -7.198,0.891 -10.152,2.672l-1.37,-4.008c3.384,-2.044 7.467,-3.065 12.247,-3.065c4.351,0 7.843,1.283 10.475,3.851c2.632,2.567 3.948,6.314 3.948,11.239l0,23.186l-5.318,0Zm-18.693,-9.353c0,4.034 2.203,6.052 6.607,6.052c4.405,0 8.407,-1.991 12.005,-5.974l0,-7.466c-2.9,0.052 -6.204,0.236 -9.91,0.55c-5.801,0.524 -8.702,2.803 -8.702,6.838Z" style="fill:#808285;fill-rule:nonzero;"/><path d="M483.996,185.314l-5.398,0l0,-37.491l5.076,0l0,5.424c3.223,-4.14 7.466,-6.209 12.73,-6.209c4.512,0 7.883,1.729 10.112,5.187c2.229,3.458 3.344,7.859 3.344,13.204l0,19.885l-5.398,0l0,-19.492c0,-9.589 -3.223,-14.383 -9.669,-14.383c-4.082,0 -7.681,1.939 -10.797,5.816l0,28.059Z" style="fill:#808285;fill-rule:nonzero;"/></g><g id="for"><path d="M272.516,121.657l-5.266,0l0,-33.168l-6.838,0l0,-4.322l6.838,0l0,-2.28c0,-11.003 4.611,-16.505 13.833,-16.505c2.41,0 4.427,0.315 6.051,0.943l-0.55,4.245c-1.467,-0.524 -3.144,-0.786 -5.03,-0.786c-3.196,0 -5.502,0.956 -6.916,2.868c-1.415,1.913 -2.122,4.939 -2.122,9.078l0,2.437l11.396,0l0,4.322l-11.396,0l0,33.168Z" style="fill:#a7a9ac;fill-rule:nonzero;"/><path d="M318.416,89.118c3.143,3.773 4.715,8.384 4.715,13.833c0,5.449 -1.572,10.06 -4.715,13.833c-3.144,3.773 -7.441,5.659 -12.89,5.659c-5.449,0 -9.746,-1.886 -12.89,-5.659c-3.144,-3.773 -4.716,-8.384 -4.716,-13.833c0,-5.449 1.572,-10.073 4.716,-13.872c3.144,-3.799 7.441,-5.698 12.89,-5.698c5.449,0 9.746,1.912 12.89,5.737Zm-3.773,24.836c2.148,-2.881 3.222,-6.549 3.222,-11.003c0,-4.454 -1.074,-8.121 -3.222,-11.003c-2.148,-2.882 -5.187,-4.323 -9.117,-4.323c-3.93,0 -6.969,1.441 -9.117,4.323c-2.149,2.882 -3.223,6.549 -3.223,11.003c0,4.454 1.074,8.109 3.223,10.964c2.148,2.856 5.187,4.284 9.117,4.284c3.93,0 6.969,-1.415 9.117,-4.245Z" style="fill:#a7a9ac;fill-rule:nonzero;"/><path d="M353.312,84.167l0,4.322l-1.493,0c-6.131,0 -10.532,2.463 -13.204,7.388l0,25.78l-5.266,0l0,-37.49l4.951,0l0,7.466c0.996,-2.41 2.581,-4.322 4.755,-5.737c2.175,-1.415 4.729,-2.122 7.663,-2.122c1.048,0 1.913,0.131 2.594,0.393Z" style="fill:#a7a9ac;fill-rule:nonzero;"/></g><g id="society"><path d="M290.819,43.31c0,3.301 -1.325,5.96 -3.975,7.978c-2.649,2.017 -6.047,3.026 -10.191,3.026c-4.513,0 -8.238,-0.734 -11.176,-2.201l0.944,-4.244c3.306,1.467 6.69,2.201 10.153,2.201c2.623,0 4.787,-0.551 6.493,-1.651c1.705,-1.1 2.557,-2.646 2.557,-4.637c0,-1.205 -0.38,-2.279 -1.141,-3.223c-0.76,-0.943 -1.613,-1.676 -2.557,-2.2c-0.945,-0.524 -2.204,-1.127 -3.778,-1.808c-0.367,-0.157 -0.63,-0.262 -0.787,-0.314c-1.837,-0.786 -3.174,-1.402 -4.014,-1.847c-0.839,-0.446 -1.954,-1.153 -3.345,-2.122c-1.39,-0.97 -2.4,-2.044 -3.03,-3.223c-0.629,-1.179 -0.944,-2.502 -0.944,-3.969c0,-3.196 1.18,-5.633 3.541,-7.309c2.361,-1.677 5.378,-2.515 9.051,-2.515c3.935,0 7.503,0.838 10.703,2.515l-1.023,4.244c-3.253,-1.677 -6.479,-2.515 -9.68,-2.515c-4.932,0 -7.398,1.703 -7.398,5.108c0,0.734 0.118,1.402 0.354,2.005c0.236,0.602 0.709,1.166 1.417,1.689c0.708,0.524 1.233,0.891 1.574,1.101c0.341,0.209 1.115,0.589 2.322,1.139c1.206,0.551 1.915,0.878 2.125,0.983c0.209,0.105 0.852,0.406 1.928,0.904c1.075,0.498 1.849,0.864 2.321,1.1c0.473,0.236 1.181,0.642 2.125,1.218c0.945,0.577 1.666,1.114 2.165,1.612c0.498,0.497 1.036,1.1 1.613,1.807c0.577,0.708 0.997,1.494 1.259,2.358c0.263,0.865 0.394,1.795 0.394,2.79Z" style="fill:#808285;fill-rule:nonzero;"/><path d="M331.665,20.989c3.148,3.773 4.722,8.384 4.722,13.833c0,5.449 -1.574,10.06 -4.722,13.833c-3.148,3.772 -7.451,5.659 -12.907,5.659c-5.457,0 -9.759,-1.887 -12.907,-5.659c-3.148,-3.773 -4.722,-8.384 -4.722,-13.833c0,-5.449 1.574,-10.073 4.722,-13.872c3.148,-3.799 7.45,-5.698 12.907,-5.698c5.456,0 9.759,1.912 12.907,5.737Zm-3.778,24.836c2.151,-2.882 3.227,-6.549 3.227,-11.003c0,-4.454 -1.076,-8.122 -3.227,-11.003c-2.151,-2.882 -5.194,-4.323 -9.129,-4.323c-3.935,0 -6.978,1.441 -9.13,4.323c-2.151,2.881 -3.226,6.549 -3.226,11.003c0,4.454 1.075,8.108 3.226,10.964c2.152,2.856 5.195,4.284 9.13,4.284c3.935,0 6.978,-1.415 9.129,-4.245Z" style="fill:#808285;fill-rule:nonzero;"/><path d="M364.719,15.33c3.935,0 7.319,0.681 10.153,2.044l-0.709,4.165c-2.938,-1.257 -5.955,-1.886 -9.05,-1.886c-4.46,0 -7.805,1.362 -10.035,4.087c-2.229,2.725 -3.344,6.419 -3.344,11.082c0,4.663 1.115,8.357 3.344,11.082c2.23,2.725 5.575,4.087 10.035,4.087c3.043,0 6.034,-0.629 8.972,-1.886l0.787,4.165c-2.834,1.363 -6.218,2.044 -10.153,2.044c-5.981,0 -10.519,-1.847 -13.615,-5.541c-3.096,-3.694 -4.643,-8.345 -4.643,-13.951c0,-5.607 1.547,-10.257 4.643,-13.951c3.096,-3.694 7.634,-5.541 13.615,-5.541Z" style="fill:#808285;fill-rule:nonzero;"/><path d="M392.894,53.528l-5.273,0l0,-37.49l5.273,0l0,37.49Zm-6.296,-48.887c0,-1.048 0.341,-1.925 1.023,-2.633c0.682,-0.707 1.548,-1.061 2.597,-1.061c1.102,0 1.994,0.354 2.676,1.061c0.682,0.708 1.023,1.585 1.023,2.633c0,0.996 -0.341,1.847 -1.023,2.555c-0.682,0.707 -1.574,1.061 -2.676,1.061c-1.049,0 -1.915,-0.354 -2.597,-1.061c-0.682,-0.708 -1.023,-1.559 -1.023,-2.555Z" style="fill:#808285;fill-rule:nonzero;"/><path d="M422.407,15.252c4.67,0 8.172,1.44 10.507,4.322c2.335,2.882 3.502,6.629 3.502,11.24c0,1.624 -0.157,3.353 -0.472,5.187l-24.712,0c0.105,9.431 4.433,14.147 12.985,14.147c3.883,0 7.53,-0.812 10.94,-2.436l0.866,3.929c-3.673,1.782 -7.792,2.673 -12.356,2.673c-5.772,0 -10.179,-1.821 -13.222,-5.463c-3.043,-3.641 -4.565,-8.318 -4.565,-14.029c0,-5.764 1.495,-10.466 4.486,-14.108c2.991,-3.642 7.004,-5.462 12.041,-5.462Zm-0.236,4.008c-3.253,0 -5.863,1.257 -7.831,3.773c-1.967,2.515 -3.003,5.449 -3.108,8.802l20.147,0c0.315,-3.772 -0.315,-6.811 -1.889,-9.117c-1.574,-2.305 -4.013,-3.458 -7.319,-3.458Z" style="fill:#808285;fill-rule:nonzero;"/><path d="M445.073,20.36l0,-4.322l6.847,0l0,-9.982l5.273,0l0,9.982l12.75,0l0,4.322l-12.75,0l0,20.828c0,3.092 0.433,5.332 1.299,6.72c0.866,1.389 2.531,2.083 4.997,2.083c2.047,0 4.119,-0.367 6.218,-1.1l0.472,4.008c-2.099,0.943 -4.643,1.415 -7.634,1.415c-7.083,0 -10.625,-4.402 -10.625,-13.204l0,-20.75l-6.847,0Z" style="fill:#808285;fill-rule:nonzero;"/><path d="M490.563,69.718l-5.195,0l5.667,-15.954l-13.537,-37.726l5.509,0l10.704,31.909l10.546,-31.909l5.43,0l-19.124,53.68Z" style="fill:#808285;fill-rule:nonzero;"/></g><path id="violet" d="M250.281,250.17l-49.947,0c3.164,-1.136 5.92,-2.643 8.267,-4.521c2.547,-2.038 4.557,-4.483 6.028,-7.336c1.472,-2.853 2.208,-5.968 2.208,-9.345c0,-3.959 -0.878,-7.336 -2.632,-10.131c-1.755,-2.795 -3.878,-5.153 -6.368,-7.074c-2.491,-1.922 -5.18,-3.523 -8.066,-4.804c-2.887,-1.281 -5.406,-2.445 -7.557,-3.493c-2.377,-1.165 -4.67,-2.271 -6.877,-3.319c-2.208,-1.048 -4.189,-2.212 -5.944,-3.493c-1.755,-1.281 -3.141,-2.766 -4.16,-4.454c-1.019,-1.689 -1.529,-3.698 -1.529,-6.027c0,-4.425 1.472,-7.802 4.416,-10.131c2.943,-2.329 7.132,-3.493 12.566,-3.493c3.622,0 7.075,0.437 10.358,1.31c3.283,0.873 6.736,2.183 10.359,3.93l1.698,-6.463c-6.34,-3.61 -13.755,-5.415 -22.245,-5.415c-7.246,0 -13.161,1.776 -17.746,5.328c-4.585,3.552 -6.877,8.588 -6.877,15.109c0,3.144 0.651,5.881 1.953,8.21c1.301,2.329 3.056,4.425 5.264,6.288c2.207,1.863 4.754,3.522 7.641,4.978c2.887,1.456 5.915,2.882 9.085,4.279c2.378,1.048 4.698,2.155 6.963,3.319c2.264,1.165 4.302,2.475 6.113,3.93c1.811,1.456 3.283,3.144 4.415,5.066c1.132,1.921 1.698,4.163 1.698,6.725c0,5.356 -2.038,9.432 -6.113,12.227c-4.076,2.794 -9.17,4.192 -15.283,4.192c-7.132,0 -14.265,-1.572 -21.397,-4.716l-1.528,6.637c1.359,0.699 3,1.339 4.925,1.922c0.908,0.274 1.829,0.53 2.762,0.765l-43.689,0l0,-121.728l121.239,0l0,121.728Z" style="fill:#919ebd;"/><path id="blue" d="M0,128.442l29.099,0l0,121.728l-29.099,0l0,-121.728Zm36.775,121.728l0,-62.805c3.839,-4.42 7.909,-7.938 12.213,-10.555c4.303,-2.617 8.898,-3.926 13.783,-3.926c4.303,0 7.938,0.931 10.904,2.792c2.966,1.861 5.321,4.362 7.066,7.502c1.745,3.14 2.995,6.833 3.751,11.079c0.756,4.245 1.134,8.752 1.134,13.521l0,42.392l-48.851,0Zm84.464,0l-27.936,0l0,-43.613c0,-5.467 -0.553,-10.643 -1.658,-15.528c-1.105,-4.885 -2.82,-9.16 -5.147,-12.823c-2.326,-3.664 -5.292,-6.572 -8.897,-8.724c-3.606,-2.152 -7.91,-3.227 -12.911,-3.227c-5.932,0 -11.253,1.337 -15.964,4.012c-4.71,2.676 -8.694,6.049 -11.951,10.119l0,-51.944l84.464,0l0,121.728Z" style="fill:#69aad3;"/><path id="gray" d="M203.02,0l-53.875,77.387l1.122,6.731l52.723,0l0,37.611l-73.948,0l0,-121.729l73.978,0Zm47.261,121.729l-39.438,0l0,-37.611l17.761,0l0,-6.918l-17.761,0l0,-77.2l39.438,0l0,121.729Zm-47.291,-110.9l-44.87,66.371l44.87,0l0,-66.371Z" style="fill:#a7a9ac;"/><path id="yellow" d="M121.239,121.729l-49.193,0c2.898,-1.106 5.44,-2.535 7.628,-4.285c2.547,-2.038 4.557,-4.483 6.028,-7.336c1.472,-2.853 2.208,-5.968 2.208,-9.345c0,-3.959 -0.877,-7.336 -2.632,-10.131c-1.755,-2.795 -3.878,-5.153 -6.368,-7.074c-2.491,-1.922 -5.179,-3.523 -8.066,-4.804c-2.887,-1.281 -5.406,-2.445 -7.557,-3.493c-2.377,-1.165 -4.67,-2.271 -6.877,-3.319c-2.208,-1.048 -4.189,-2.212 -5.944,-3.493c-1.754,-1.281 -3.141,-2.766 -4.16,-4.455c-1.019,-1.688 -1.528,-3.697 -1.528,-6.026c0,-4.425 1.471,-7.802 4.415,-10.131c2.943,-2.329 7.132,-3.493 12.566,-3.493c3.623,0 7.075,0.437 10.358,1.31c3.283,0.873 6.736,2.183 10.359,3.93l1.698,-6.463c-6.34,-3.61 -13.755,-5.415 -22.245,-5.415c-7.246,0 -13.161,1.776 -17.746,5.328c-4.585,3.551 -6.877,8.588 -6.877,15.109c0,3.144 0.651,5.881 1.953,8.21c1.302,2.328 3.056,4.425 5.264,6.288c2.207,1.863 4.755,3.522 7.641,4.978c2.887,1.455 5.916,2.882 9.085,4.279c2.378,1.048 4.699,2.155 6.963,3.319c2.264,1.165 4.302,2.475 6.113,3.93c1.811,1.456 3.283,3.144 4.415,5.066c1.132,1.921 1.698,4.163 1.698,6.725c0,5.356 -2.038,9.432 -6.113,12.227c-4.076,2.794 -9.17,4.192 -15.283,4.192c-7.132,0 -14.264,-1.572 -21.397,-4.716l-1.528,6.637c1.359,0.699 3,1.339 4.925,1.922c0.612,0.185 1.23,0.361 1.853,0.529l-42.895,0l0,-121.729l121.239,0l0,121.729Z" style="fill:#f8de15;"/></g></svg>