<?xml version="1.0" encoding="UTF-8" standalone="no"?><!DOCTYPE svg PUBLIC "-//W3C//DTD SVG 1.1//EN" "http://www.w3.org/Graphics/SVG/1.1/DTD/svg11.dtd"><svg width="100%" height="100%" viewBox="0 0 512 512" version="1.1" xmlns="http://www.w3.org/2000/svg" xmlns:xlink="http://www.w3.org/1999/xlink" xml:space="preserve" xmlns:serif="http://www.serif.com/" style="fill-rule:evenodd;clip-rule:evenodd;stroke-linejoin:round;stroke-miterlimit:2;"><path id="violet" d="M512,512l-102.118,0c6.469,-2.323 12.103,-5.404 16.902,-9.243c5.208,-4.167 9.316,-9.166 12.325,-14.999c3.009,-5.833 4.513,-12.202 4.513,-19.106c0,-8.095 -1.794,-14.999 -5.381,-20.713c-3.588,-5.714 -7.927,-10.535 -13.019,-14.463c-5.093,-3.929 -10.59,-7.202 -16.492,-9.821c-5.902,-2.619 -11.052,-5 -15.449,-7.142c-4.861,-2.381 -9.548,-4.643 -14.061,-6.786c-4.514,-2.142 -8.564,-4.523 -12.152,-7.142c-3.587,-2.619 -6.423,-5.654 -8.506,-9.107c-2.083,-3.452 -3.124,-7.559 -3.124,-12.32c0,-9.047 3.009,-15.951 9.026,-20.713c6.018,-4.762 14.582,-7.142 25.692,-7.142c7.407,0 14.466,0.892 21.178,2.678c6.712,1.786 13.772,4.464 21.178,8.035l3.472,-13.213c-12.961,-7.381 -28.122,-11.071 -45.481,-11.071c-14.813,0 -26.906,3.631 -36.28,10.892c-9.374,7.262 -14.061,17.559 -14.061,30.891c0,6.428 1.331,12.023 3.992,16.785c2.662,4.761 6.25,9.047 10.763,12.856c4.513,3.809 9.721,7.202 15.623,10.178c5.902,2.976 12.094,5.892 18.574,8.749c4.861,2.143 9.606,4.405 14.235,6.785c4.629,2.381 8.795,5.06 12.499,8.035c3.703,2.976 6.712,6.429 9.026,10.357c2.315,3.928 3.472,8.511 3.472,13.749c0,10.952 -4.166,19.284 -12.498,24.998c-8.333,5.714 -18.748,8.571 -31.247,8.571c-14.582,0 -29.163,-3.214 -43.745,-9.642l-3.125,13.57c2.778,1.429 6.134,2.738 10.069,3.929c1.856,0.561 3.739,1.083 5.647,1.565l-89.321,0l0,-248.875l247.874,0l0,248.875Z" style="fill:#919ebd;"/><path id="blue" d="M0,263.125l59.492,0l0,248.875l-59.492,0l0,-248.875Zm75.187,248.875l0,-128.406c7.848,-9.036 16.171,-16.229 24.969,-21.58c8.799,-5.35 18.192,-8.026 28.18,-8.026c8.798,0 16.229,1.903 22.293,5.708c6.064,3.804 10.88,8.917 14.447,15.338c3.567,6.42 6.123,13.97 7.669,22.65c1.545,8.68 2.318,17.895 2.318,27.644l0,86.672l-99.876,0Zm172.687,0l-57.116,0l0,-89.169c0,-11.176 -1.13,-21.758 -3.389,-31.746c-2.259,-9.987 -5.766,-18.727 -10.522,-26.217c-4.756,-7.491 -10.82,-13.436 -18.192,-17.835c-7.372,-4.4 -16.17,-6.599 -26.396,-6.599c-12.128,0 -23.007,2.735 -32.638,8.204c-9.631,5.469 -17.775,12.365 -24.434,20.688l0,-106.201l172.687,0l0,248.875Z" style="fill:#69aad3;"/><path id="gray" d="M415.374,0l-110.147,158.219l2.293,13.761l107.793,0l0,76.895l-151.187,0l0,-248.875l151.248,0Zm96.626,248.875l-80.633,0l0,-76.895l36.313,0l0,-14.143l-36.313,0l0,-157.837l80.633,0l0,248.875Zm-96.687,-226.735l-91.739,135.697l91.739,0l0,-135.697Z" style="fill:#a7a9ac;"/><path id="yellow" d="M247.874,248.875l-100.575,0c5.924,-2.261 11.122,-5.181 15.595,-8.76c5.208,-4.166 9.316,-9.166 12.325,-14.999c3.009,-5.832 4.514,-12.201 4.514,-19.105c0,-8.095 -1.794,-14.999 -5.382,-20.713c-3.587,-5.714 -7.927,-10.535 -13.019,-14.464c-5.092,-3.928 -10.589,-7.201 -16.491,-9.82c-5.902,-2.619 -11.052,-5 -15.45,-7.143c-4.86,-2.38 -9.547,-4.642 -14.061,-6.785c-4.513,-2.143 -8.564,-4.523 -12.151,-7.142c-3.588,-2.619 -6.423,-5.655 -8.506,-9.107c-2.083,-3.452 -3.125,-7.559 -3.125,-12.32c0,-9.047 3.009,-15.952 9.027,-20.713c6.018,-4.762 14.582,-7.143 25.691,-7.143c7.407,0 14.466,0.893 21.179,2.679c6.712,1.785 13.771,4.464 21.178,8.035l3.472,-13.213c-12.962,-7.381 -28.122,-11.071 -45.481,-11.071c-14.813,0 -26.907,3.631 -36.281,10.892c-9.374,7.261 -14.061,17.558 -14.061,30.891c0,6.428 1.331,12.023 3.993,16.784c2.661,4.762 6.249,9.047 10.762,12.857c4.514,3.809 9.722,7.201 15.624,10.177c5.902,2.976 12.093,5.893 18.574,8.75c4.861,2.143 9.605,4.404 14.234,6.785c4.63,2.381 8.796,5.059 12.499,8.035c3.703,2.976 6.712,6.428 9.027,10.357c2.314,3.928 3.472,8.511 3.472,13.749c0,10.951 -4.167,19.284 -12.499,24.998c-8.332,5.714 -18.748,8.571 -31.246,8.571c-14.582,0 -29.164,-3.214 -43.746,-9.642l-3.124,13.57c2.777,1.429 6.133,2.738 10.068,3.929c1.252,0.378 2.515,0.739 3.79,1.081l-87.7,0l0,-248.875l247.874,0l0,248.875Z" style="fill:#f8de15;"/></svg>